# xmcd
#
# Track frame offsets:
#	150
#	12179
#	22579
#	32254
#	43999
#	55786
#	67857
#	77976
#	90437
#	103670
#	121583
#	131742
#	142423
#	152843
#	167453
#	179346
#	186699
#	200834
#	210410
#	222588
#	230391
#	244272
#	255496
#	268297
#	279063
#	291596
#
# Disc length: 3975 seconds
#
# Revision: 1
# Processed by: cddbd v1.5.2PL0 Copyright (c) Steve Scherf et al.
# Submitted via: audiograbber 1.83.01
#
DISCID=7b0f851a
DTITLE=Various Artist - Best of Country Vol II
DYEAR=1900
DGENRE=Country
TTITLE0=Waylon Jennings - Don't think twice
TTITLE1=Patsy Cline - Three cigarettes in the ashtray
TTITLE2=Faron Young - Country Girl
TTITLE3=Donna Fargo - The happiest girl in the whole USA
TTITLE4=Kenny Rogers - Elvira
TTITLE5=Freddy Fender - Before the next teardrop falls
TTITLE6=Dolly Parton - Release me
TTITLE7=Faron Young - It's four in the morning
TTITLE8=Lynn Anderson - Rose Garden
TTITLE9=Juice Newton - Break it to me gently
TTITLE10=Ferlin Husky - Gone
TTITLE11=Kenny Rogers - She even woke me up to say goodbye
TTITLE12=Mickey Gilley - Forgive
TTITLE13=Porter Wagoner - Green green gras of home
TTITLE14=Billy Joe Spears - Look what they've done to my song, Ma
TTITLE15=Merle Hagard - I'm a lonesome fugitive
TTITLE16=Tex Ritter - Conversation with a gun
TTITLE17=Willie Nelson - Let's pretend
TTITLE18=Moe Bandy - Good old boys
TTITLE19=Don Gibson - Blue blue day
TTITLE20=Lacy J Dalton - Tennessee waltz
TTITLE21=Sandy Posey - I will follow him
TTITLE22=T G Shepard - Devil in the bottle
TTITLE23=Dolly Parton - It wasn't God who made Honky Tonk Angels
TTITLE24=Freddy Fender - Wasted days and wasted nights
TTITLE25=Waylon Jennings - It's so easy
EXTD=Intense Music\n401122240811
EXTT0=
EXTT1=
EXTT2=
EXTT3=
EXTT4=
EXTT5=
EXTT6=
EXTT7=
EXTT8=
EXTT9=
EXTT10=
EXTT11=
EXTT12=
EXTT13=
EXTT14=
EXTT15=
EXTT16=
EXTT17=
EXTT18=
EXTT19=
EXTT20=
EXTT21=
EXTT22=
EXTT23=
EXTT24=
EXTT25=
PLAYORDER=
